<svg width="25" height="24" viewBox="0 0 25 24" fill="none" xmlns="http://www.w3.org/2000/svg">
<path d="M12.4912 21.75C13.5912 21.75 14.4912 20.85 14.4912 19.75H10.4912C10.4912 20.85 11.3912 21.75 12.4912 21.75ZM18.4912 15.75V10.75C18.4912 7.68 16.8612 5.11 13.9912 4.43V3.75C13.9912 2.92 13.3212 2.25 12.4912 2.25C11.6612 2.25 10.9912 2.92 10.9912 3.75V4.43C8.13121 5.11 6.49121 7.67 6.49121 10.75V15.75L4.49121 17.75V18.75H20.4912V17.75L18.4912 15.75ZM16.4912 16.75H8.49121V10.75C8.49121 8.27 10.0012 6.25 12.4912 6.25C14.9812 6.25 16.4912 8.27 16.4912 10.75V16.75Z" fill="#050E15"/>
<rect x="14.9912" width="8" height="8" rx="4" fill="#C8102E"/>
<path d="M18.9965 6.05966C18.7039 6.05966 18.4426 6.00923 18.2124 5.90838C17.9838 5.80753 17.8026 5.66761 17.6691 5.48864C17.537 5.30824 17.466 5.09943 17.4561 4.86222H18.1251C18.1336 4.99148 18.1769 5.10369 18.2551 5.19886C18.3346 5.29261 18.4383 5.36506 18.5661 5.41619C18.694 5.46733 18.836 5.4929 18.9923 5.4929C19.1642 5.4929 19.3161 5.46307 19.4482 5.40341C19.5818 5.34375 19.6862 5.26065 19.7615 5.15412C19.8367 5.04616 19.8744 4.92188 19.8744 4.78125C19.8744 4.63494 19.8367 4.50639 19.7615 4.3956C19.6876 4.28338 19.5789 4.19531 19.4355 4.13139C19.2934 4.06747 19.1215 4.03551 18.9198 4.03551H18.5512V3.49858H18.9198C19.0818 3.49858 19.2238 3.46946 19.346 3.41122C19.4695 3.35298 19.5661 3.27202 19.6357 3.16832C19.7053 3.06321 19.7401 2.94034 19.7401 2.79972C19.7401 2.66477 19.7096 2.54759 19.6485 2.44815C19.5889 2.3473 19.5036 2.26847 19.3928 2.21165C19.2835 2.15483 19.1542 2.12642 19.0051 2.12642C18.863 2.12642 18.7302 2.1527 18.6066 2.20526C18.4845 2.25639 18.385 2.33026 18.3083 2.42685C18.2316 2.52202 18.1904 2.63636 18.1847 2.76989H17.5477C17.5548 2.53409 17.6244 2.3267 17.7565 2.14773C17.89 1.96875 18.0661 1.82884 18.2849 1.72798C18.5036 1.62713 18.7465 1.5767 19.0136 1.5767C19.2934 1.5767 19.5349 1.63139 19.738 1.74077C19.9426 1.84872 20.1002 1.9929 20.211 2.1733C20.3232 2.35369 20.3786 2.55114 20.3772 2.76562C20.3786 3.00994 20.3105 3.21733 20.1727 3.38778C20.0363 3.55824 19.8545 3.67259 19.6272 3.73082V3.76491C19.917 3.80895 20.1414 3.92401 20.3005 4.11009C20.461 4.29616 20.5406 4.52699 20.5392 4.80256C20.5406 5.04261 20.4738 5.25781 20.3389 5.44815C20.2053 5.63849 20.0228 5.78835 19.7913 5.89773C19.5597 6.00568 19.2948 6.05966 18.9965 6.05966Z" fill="white"/>
</svg>
