<svg width="24" height="25" viewBox="0 0 24 25" fill="none" xmlns="http://www.w3.org/2000/svg">
<path opacity="0.4" d="M16.0755 2.0127H19.4615C20.8637 2.0127 22 3.15855 22 4.57266V7.98722C22 9.40133 20.8637 10.5472 19.4615 10.5472H16.0755C14.6732 10.5472 13.537 9.40133 13.537 7.98722V4.57266C13.537 3.15855 14.6732 2.0127 16.0755 2.0127Z" fill="#04040B"/>
<path fill-rule="evenodd" clip-rule="evenodd" d="M4.53852 2.0127H7.92449C9.32676 2.0127 10.463 3.15855 10.463 4.57266V7.98722C10.463 9.40133 9.32676 10.5472 7.92449 10.5472H4.53852C3.13626 10.5472 2 9.40133 2 7.98722V4.57266C2 3.15855 3.13626 2.0127 4.53852 2.0127ZM4.53852 13.4782H7.92449C9.32676 13.4782 10.463 14.6241 10.463 16.0382V19.4527C10.463 20.8659 9.32676 22.0127 7.92449 22.0127H4.53852C3.13626 22.0127 2 20.8659 2 19.4527V16.0382C2 14.6241 3.13626 13.4782 4.53852 13.4782ZM19.4615 13.4782H16.0755C14.6732 13.4782 13.537 14.6241 13.537 16.0382V19.4527C13.537 20.8659 14.6732 22.0127 16.0755 22.0127H19.4615C20.8637 22.0127 22 20.8659 22 19.4527V16.0382C22 14.6241 20.8637 13.4782 19.4615 13.4782Z" fill="#04040B"/>
</svg>
