<svg width="131" height="131" viewBox="0 0 131 131" fill="none" xmlns="http://www.w3.org/2000/svg">
<rect x="5.5" y="5" width="120" height="120" rx="60" fill="#EBEBEB"/>
<rect x="5.5" y="5" width="120" height="120" rx="60" stroke="#F5F5F5" stroke-width="10"/>
<path d="M89.0179 84.3787L77.9917 73.3525C80.6463 69.8186 82.0793 65.517 82.0745 61.0971C82.0745 49.8072 72.8894 40.6221 61.5995 40.6221C50.3097 40.6221 41.1245 49.8072 41.1245 61.0971C41.1245 72.3869 50.3097 81.5721 61.5995 81.5721C66.0194 81.5769 70.321 80.1439 73.855 77.4893L84.8812 88.5154C85.4393 89.0144 86.1673 89.2807 86.9156 89.2598C87.6639 89.2388 88.3759 88.9322 88.9052 88.4028C89.4346 87.8734 89.7412 87.1615 89.7622 86.4132C89.7831 85.6648 89.5168 84.9369 89.0179 84.3787ZM46.9745 61.0971C46.9745 58.2045 47.8323 55.3769 49.4393 52.9719C51.0463 50.5668 53.3304 48.6923 56.0028 47.5853C58.6751 46.4784 61.6157 46.1888 64.4527 46.7531C67.2897 47.3174 69.8956 48.7103 71.9409 50.7556C73.9863 52.801 75.3792 55.4069 75.9435 58.2439C76.5078 61.0808 76.2182 64.0214 75.1112 66.6938C74.0043 69.3662 72.1298 71.6503 69.7247 73.2573C67.3197 74.8643 64.4921 75.7221 61.5995 75.7221C57.7221 75.7174 54.0049 74.1751 51.2632 71.4334C48.5215 68.6917 46.9792 64.9744 46.9745 61.0971Z" fill="#999999"/>
</svg>
