<svg width="24" height="25" viewBox="0 0 24 25" fill="none" xmlns="http://www.w3.org/2000/svg">
<path opacity="0.4" d="M21.9999 12.013C21.9999 17.537 17.5229 22.013 11.9999 22.013C6.47688 22.013 1.99988 17.537 1.99988 12.013C1.99988 6.491 6.47688 2.013 11.9999 2.013C17.5229 2.013 21.9999 6.491 21.9999 12.013Z" fill="#8A92A6"/>
<path fill-rule="evenodd" clip-rule="evenodd" d="M12.87 12.6439C12.87 13.1259 12.477 13.5189 11.995 13.5189C11.513 13.5189 11.12 13.1259 11.12 12.6439V8.22388C11.12 7.74188 11.513 7.34888 11.995 7.34888C12.477 7.34888 12.87 7.74188 12.87 8.22388V12.6439ZM11.125 15.8167C11.125 15.3347 11.516 14.9417 11.995 14.9417C12.488 14.9417 12.88 15.3347 12.88 15.8167C12.88 16.2987 12.488 16.6917 12.005 16.6917C11.52 16.6917 11.125 16.2987 11.125 15.8167Z" fill="#8A92A6"/>
</svg>
