<svg width="131" height="130" viewBox="0 0 131 130" fill="none" xmlns="http://www.w3.org/2000/svg">
<rect x="5.5" y="5" width="120" height="120" rx="60" fill="#EBEBEB"/>
<rect x="5.5" y="5" width="120" height="120" rx="60" stroke="#F5F5F5" stroke-width="10"/>
<path d="M84.25 60.9355V83.7578C84.25 85.2496 83.6574 86.6804 82.6025 87.7353C81.5476 88.7902 80.1168 89.3828 78.625 89.3828H52.375C50.8832 89.3828 49.4524 88.7902 48.3975 87.7353C47.3426 86.6804 46.75 85.2496 46.75 83.7578V46.2578C46.75 44.766 47.3426 43.3352 48.3975 42.2803C49.4524 41.2254 50.8832 40.6328 52.375 40.6328H63.9473C64.9415 40.633 65.8949 41.0279 66.598 41.7309L83.152 58.2848C83.8549 58.9879 84.2498 59.9413 84.25 60.9355Z" stroke="#999999" stroke-width="4" stroke-linejoin="round"/>
<path d="M56.125 78.1328H74.875M65.5 41.5703V55.6328C65.5 56.6274 65.8951 57.5812 66.5984 58.2845C67.3016 58.9877 68.2554 59.3828 69.25 59.3828H83.3125L65.5 41.5703ZM56.125 68.7578H74.875H56.125Z" stroke="#999999" stroke-width="4" stroke-linecap="round" stroke-linejoin="round"/>
</svg>
