<svg width="24" height="24" viewBox="0 0 24 24" fill="none" xmlns="http://www.w3.org/2000/svg">
<path d="M8.25 11.998H20.25M14.25 15.748V17.6231C14.25 18.1203 14.0525 18.5972 13.7008 18.9489C13.3492 19.3005 12.8723 19.4981 12.375 19.4981H4.875C4.37772 19.4981 3.90081 19.3005 3.54917 18.9489C3.19754 18.5972 3 18.1203 3 17.6231V6.37305C3 5.87577 3.19754 5.39885 3.54917 5.04722C3.90081 4.69559 4.37772 4.49805 4.875 4.49805H12C13.0355 4.49805 14.25 5.33758 14.25 6.37305V8.24805V15.748ZM17.25 15.748L21 11.998L17.25 8.24805V15.748Z" stroke="red" stroke-width="1.5" stroke-linecap="round" stroke-linejoin="round"/>
</svg>
