<svg width="55" height="56" viewBox="0 0 55 56" fill="none" xmlns="http://www.w3.org/2000/svg">
<path d="M9.19043 16.8617V39.1452L28.0852 50.2869L46.9799 39.1452V29.4735L40.7002 25.7705L36.9154 28.0035L43.0903 31.6442C43.1558 31.6835 43.1951 31.7523 43.1951 31.8309V36.7911C43.1951 36.8664 43.1558 36.9384 43.0903 36.9777L28.19 45.7654C28.1572 45.785 28.1212 45.7948 28.0852 45.7948C28.0492 45.7948 28.0131 45.785 27.9804 45.7654L13.08 36.981C13.0146 36.9417 12.9753 36.873 12.9753 36.7944V19.2224C12.9753 19.147 13.0146 19.075 13.08 19.0357C13.1455 18.9964 13.2241 18.9964 13.2896 19.0357L28.0852 27.7612L46.7704 16.7439L28.0852 5.72656L9.19043 16.8683V16.8617ZM38.8864 16.554C38.9519 16.5933 38.9912 16.662 38.9912 16.7406C38.9912 16.8192 38.9519 16.8879 38.8864 16.9272L34.6825 19.4057L28.1932 23.2331C28.1605 23.2528 28.1245 23.2626 28.0885 23.2626C28.0524 23.2626 28.0164 23.2528 27.9837 23.2331L21.4944 19.4057L17.2905 16.9272C17.225 16.8879 17.1857 16.8192 17.1857 16.7406C17.1857 16.662 17.225 16.5933 17.2905 16.554L27.987 10.2481C28.0524 10.2088 28.131 10.2088 28.1965 10.2481L38.8897 16.554H38.8864Z" fill="#E1251B"/>
<path d="M27.9804 33.1505L17.6016 27.0312V34.1884L28.0852 40.3699L38.3593 34.3128L32.2891 30.7342L28.19 33.1505C28.1572 33.1702 28.1212 33.18 28.0852 33.18C28.0492 33.18 28.0131 33.1702 27.9804 33.1505Z" fill="#E1251B"/>
<path d="M27.4172 0C12.2746 0 0 12.5365 0 28C0 43.4635 12.2746 56 27.4172 56C42.5599 56 54.8344 43.4635 54.8344 28C54.8344 12.5365 42.5599 0 27.4172 0ZM47.4022 21.6941C47.4022 21.7694 47.3629 21.8414 47.2975 21.8807L41.1225 25.5215L47.2975 29.1623C47.3629 29.2016 47.4022 29.2703 47.4022 29.3489V39.2661C47.4022 39.3414 47.3629 39.4135 47.2975 39.4528L28.1932 50.7189C28.1604 50.7385 28.1244 50.7484 28.0884 50.7484C28.0524 50.7484 28.0164 50.7385 27.9836 50.7189L8.87932 39.4528C8.81384 39.4135 8.77455 39.3447 8.77455 39.2661V16.7339C8.77455 16.6586 8.81384 16.5865 8.87932 16.5472L27.9869 5.2811C28.0524 5.24181 28.131 5.24181 28.1964 5.2811L47.3007 16.5472C47.3662 16.5865 47.4055 16.6553 47.4055 16.7339V21.6941H47.4022Z" fill="#E1251B"/>
<path d="M22.0181 19.2192L28.0849 22.7978L34.1551 19.2192L28.0849 15.6406L22.0181 19.2192Z" fill="#E1251B"/>
<path d="M34.155 19.2192L28.0848 22.7978L22.0146 19.2192L28.0848 15.6406L34.155 19.2192Z" fill="#E1251B"/>
</svg>
