<svg viewBox="0 0 24 24" fill="none" xmlns="http://www.w3.org/2000/svg">
<path d="M12 2C6.47 2 2 6.47 2 12C2 17.53 6.47 22 12 22C17.53 22 22 17.53 22 12C22 6.47 17.53 2 12 2ZM16.3 16.3C15.91 16.69 15.28 16.69 14.89 16.3L12 13.41L9.11 16.3C8.72 16.69 8.09 16.69 7.7 16.3C7.31 15.91 7.31 15.28 7.7 14.89L10.59 12L7.7 9.11C7.31 8.72 7.31 8.09 7.7 7.7C8.09 7.31 8.72 7.31 9.11 7.7L12 10.59L14.89 7.7C15.28 7.31 15.91 7.31 16.3 7.7C16.69 8.09 16.69 8.72 16.3 9.11L13.41 12L16.3 14.89C16.68 15.27 16.68 15.91 16.3 16.3Z" fill="#FF5156" fill-opacity="0.5"/>
<path d="M14.8888 16.2997C15.2788 16.6897 15.9087 16.6897 16.2987 16.2997C16.6787 15.9097 16.6787 15.2697 16.2987 14.8897L13.4088 11.9997L16.2987 9.10973C16.6887 8.71973 16.6887 8.08973 16.2987 7.69973C15.9087 7.30973 15.2788 7.30973 14.8888 7.69973L11.9988 10.5897L9.10875 7.69973C8.71875 7.30973 8.08875 7.30973 7.69875 7.69973C7.30875 8.08973 7.30875 8.71973 7.69875 9.10973L10.5888 11.9997L7.69875 14.8897C7.30875 15.2797 7.30875 15.9097 7.69875 16.2997C8.08875 16.6897 8.71875 16.6897 9.10875 16.2997L11.9988 13.4097L14.8888 16.2997Z" fill="white"/>
</svg>
