<svg viewBox="0 0 23 23" xmlns="http://www.w3.org/2000/svg">
  <path
    d="M19.4538 3.54625L17.8675 5.1325C19.4875 6.76375 20.5 9.01375 20.5 11.5C20.5 16.4725 16.4725 20.5 11.5 20.5C6.5275 20.5 2.5 16.4725 2.5 11.5C2.5 6.91 5.93125 3.13 10.375 2.57875V4.85125C7.18 5.39125 4.75 8.15875 4.75 11.5C4.75 15.2238 7.77625 18.25 11.5 18.25C15.2238 18.25 18.25 15.2238 18.25 11.5C18.25 9.6325 17.4963 7.945 16.27 6.73L14.6838 8.31625C15.4937 9.1375 16 10.2625 16 11.5C16 13.9862 13.9862 16 11.5 16C9.01375 16 7 13.9862 7 11.5C7 9.4075 8.44 7.66375 10.375 7.1575V9.565C9.7 9.95875 9.25 10.6675 9.25 11.5C9.25 12.7375 10.2625 13.75 11.5 13.75C12.7375 13.75 13.75 12.7375 13.75 11.5C13.75 10.6675 13.3 9.9475 12.625 9.565V0.25H11.5C5.29 0.25 0.25 5.29 0.25 11.5C0.25 17.71 5.29 22.75 11.5 22.75C17.71 22.75 22.75 17.71 22.75 11.5C22.75 8.395 21.49 5.5825 19.4538 3.54625Z" />
</svg>