<svg width="25" height="16" viewBox="0 0 25 16" fill="none" xmlns="http://www.w3.org/2000/svg">
<path d="M12.4671 15.2434L8.1794 10.2397C7.76897 9.76214 8.10823 9.02441 8.73706 9.02441H17.3137C17.9425 9.02441 18.2818 9.76214 17.8726 10.2397L13.5849 15.2434C13.5158 15.324 13.43 15.3887 13.3336 15.4331C13.2371 15.4774 13.1322 15.5004 13.026 15.5004C12.9198 15.5004 12.8149 15.4774 12.7184 15.4331C12.622 15.3887 12.5362 15.324 12.4671 15.2434Z" fill="#C2C2C2"/>
<path d="M13.5841 1.25701L17.8718 6.26067C18.2822 6.73827 17.943 7.476 17.3141 7.476L8.73748 7.476C8.10865 7.476 7.76939 6.73827 8.17859 6.26067L12.4663 1.25701C12.5354 1.1764 12.6211 1.11169 12.7176 1.06733C12.8141 1.02297 12.919 1 13.0252 1C13.1314 1 13.2363 1.02297 13.3328 1.06733C13.4292 1.11169 13.515 1.1764 13.5841 1.25701Z" fill="#C2C2C2"/>
</svg>
