<svg width="24" height="24" viewBox="0 0 24 24" fill="none" xmlns="http://www.w3.org/2000/svg">
<path d="M16.2451 16.2134L16.2449 16.2133C15.0556 15.45 13.5479 15.0292 11.9999 15.0292C10.4519 15.0292 8.94424 15.45 7.75493 16.2133L7.75479 16.2134C7.17349 16.5806 6.66209 17.0482 6.24449 17.5944L6.22587 17.5802L6.24464 17.5942C6.22611 17.619 6.20235 17.6394 6.17505 17.6539C6.14776 17.6685 6.11759 17.6769 6.0867 17.6785C6.0558 17.6801 6.02492 17.6749 5.99626 17.6633L16.2451 16.2134ZM16.2451 16.2134C16.8264 16.5808 17.3378 17.0485 17.7554 17.5949L17.774 17.5806M16.2451 16.2134L5.92085 17.6111C4.54147 16.122 3.7601 14.1763 3.7265 12.1468C3.64987 7.57233 7.40335 3.74363 11.9797 3.73235C16.556 3.72107 20.2734 7.43706 20.2734 12.0058C20.2749 14.0842 19.4912 16.0865 18.079 17.6116C18.058 17.6343 18.0323 17.6521 18.0036 17.6637C17.9749 17.6754 17.9441 17.6806 17.9132 17.679C17.8823 17.6774 17.8521 17.669 17.8248 17.6544C17.7975 17.6398 17.7738 17.6194 17.7552 17.5947L17.774 17.5806M17.774 17.5806C17.7905 17.6027 17.8116 17.6208 17.8358 17.6337C17.8601 17.6467 17.8869 17.6542 17.9144 17.6556C17.9419 17.657 17.9693 17.6524 17.9948 17.642C18.0202 17.6317 18.0431 17.6158 18.0618 17.5956L17.774 17.5806ZM12.1356 2.27922C6.66531 2.20534 2.19949 6.67116 2.27336 12.1414L12.1356 2.27922ZM12.1356 2.27922C17.3818 2.35217 21.6535 6.62396 21.7256 11.8711C21.8004 17.3414 17.3355 21.8072 11.8643 21.7324C6.6181 21.6594 2.34632 17.3876 2.27336 12.1414L12.1356 2.27922Z" fill="#7B7B7B" stroke="#999999" stroke-width="0.046875"/>
<path d="M9.66344 7.74495C10.2526 7.12046 11.082 6.77637 12.0004 6.77637C12.9127 6.77637 13.7407 7.12274 14.3323 7.75057C14.9313 8.38674 15.2236 9.24266 15.1547 10.1618C15.0167 11.9917 13.6018 13.4795 12.0004 13.4795C10.399 13.4795 8.98141 11.9917 8.84617 10.1614C8.77958 9.23318 9.07439 8.36933 9.66344 7.74495Z" fill="#7B7B7B" stroke="#92949C" stroke-width="0.046875"/>
</svg>
